<?xml version="1.0" encoding="utf-8"?>
<!-- Generator: Adobe Illustrator 16.0.0, SVG Export Plug-In . SVG Version: 6.00 Build 0)  -->
<!DOCTYPE svg PUBLIC "-//W3C//DTD SVG 1.1//EN" "http://www.w3.org/Graphics/SVG/1.1/DTD/svg11.dtd">
<svg version="1.1" id="Layer_1" xmlns="http://www.w3.org/2000/svg" xmlns:xlink="http://www.w3.org/1999/xlink" x="0px" y="0px"
	 width="91px" height="72.25px" viewBox="0 0 91 72.25" enable-background="new 0 0 91 72.25" xml:space="preserve">
<polygon fill="#21B095" points="57.869,41.318 57.623,41.553 57.887,42.268 57.623,43.186 58.293,42.98 58.568,43.436 
	59.035,43.436 59.27,42.492 59.27,42.26 58.809,42.492 58.336,42.492 59.035,41.553 59.035,41.082 58.568,41.082 58.52,41.838 
	58.096,41.318 "/>
<polygon fill="#21B095" points="58.336,41.082 58.322,40.578 57.869,40.85 "/>
<path fill="#21B095" d="M63.273,46.035l-0.939,0.697l-0.467-0.943H61.16l0.234,0.473v0.707H62.1l0.707,0.234l0.693,0.488
	l-0.252,0.92l1.205,0.24h0.711l0.366-0.762l0.573,0.295c0.488,0.73,0.465,0.914,1.646,0.939l-1.18-1.18l0.256-0.459L63.273,46.035z"
	/>
<path fill="#21B095" d="M32.21,50.025l-0.23,0.473l-0.233,0.232l-0.243,0.234l-0.233,0.238h-0.706v1.174
	c0,0.527-0.184,0.516-0.466,0.939l0.46,1.186c1.929-0.461,0.937-1.174,1.892-2.592v-0.707l0.237-0.238V50.73l-0.237-0.705H32.21
	L32.21,50.025z"/>
<path fill="#21B095" d="M83.675,44.484c-2.521,0-4.671,1.555-5.569,3.75l-4.398-1.379c0.59-2.383,0.934-4.857,0.934-7.418
	c0-10.212-4.963-19.261-12.578-24.944l3.09-5.215c0.488,0.213,1.025,0.336,1.594,0.336c2.221,0,4.02-1.798,4.02-4.018
	c0-2.22-1.799-4.02-4.02-4.02c-2.214,0-4.014,1.8-4.014,4.02c0,1.289,0.645,2.383,1.591,3.119l-3.07,5.172
	c-5.039-3.514-11.156-5.59-17.752-5.59c-10.068,0-19.01,4.824-24.703,12.257l-5.794-4.156c0.54-0.903,0.869-1.947,0.869-3.075
	c0-3.33-2.696-6.028-6.025-6.028c-3.332,0-6.03,2.698-6.03,6.028c0,3.331,2.699,6.028,6.03,6.028c1.836,0,3.464-0.843,4.57-2.142
	l5.785,4.146c-3.657,5.104-5.835,11.336-5.835,18.083c0,2.541,0.338,4.998,0.919,7.363l-3.381,1.91
	c-0.73-0.984-1.842-1.658-3.166-1.658c-2.22,0-4.019,1.799-4.019,4.016s1.799,4.016,4.019,4.016s4.02-1.799,4.02-4.016
	c0-0.535-0.117-1.043-0.308-1.508l3.096-1.748C17.216,60.92,29.244,70.57,43.507,70.57c14.264,0,26.282-9.645,29.961-22.744
	l4.349,1.369c-0.096,0.424-0.154,0.859-0.154,1.316c0,3.332,2.693,6.029,6.025,6.029c3.328,0,6.03-2.697,6.03-6.029
	C89.705,47.184,87.004,44.484,83.675,44.484z M23.299,18.495h0.209c-0.043-0.06-0.046-0.077-0.074-0.123
	c5.226-4.984,12.289-8.065,20.063-8.065c8.083,0,15.409,3.316,20.69,8.653h-0.914v0.468h1.342c0.076,0.082,0.15,0.166,0.225,0.252
	c-0.114-0.003-0.213-0.006-0.387-0.009v0.468l-0.707,0.472h-0.709l-2.444,0.069l-0.612-0.918l-5.398-0.087l0.21-0.689l-0.454-0.258
	h-0.24h-1.648v-0.232h-0.471h-0.232l-0.233-0.708c-1.229,0-0.915-0.21-1.416,0.475h0.709v0.233l-2.821,0.469l-1.883,0.234h-0.233
	l-0.473,0.234l-0.473,0.239h-1.64v0.468l-0.939,0.021l-1.692,0.252l0.273,0.198l0.234,0.708l0.018,0.48l-0.255,0.459h-0.476
	l-0.181-0.192l0.458-0.549l-0.276-0.195v-1.179h-0.706c-0.633,0-0.989,0.443-1.173,0.939l0.234,0.236l-0.234,0.235l-0.706-0.235
	h-0.233l-1.416-0.236v0.471h-0.47h-1.407h-1.885v-0.471h-0.473c0.086,0.233,0.11,0.346,0.117,0.419
	c0.067,0.037,0.169,0.112,0.356,0.289H32.21l-1.167,0.233v-0.47h-0.476v0.705h-0.94h-0.233l-1.18-0.705l-0.464-0.235
	c-1.707,0-1.983-0.472-3.537-0.472H23.98c-0.639,0-0.651,0.116-1.173,0.235l-1.649,0.471l-0.236,0.233l-0.461,0.258l-0.267-0.012
	C21.137,20.773,22.168,19.585,23.299,18.495z M42.337,21.553v0.233h-0.243L42.337,21.553z M36.681,30.028l-1.167,0.289l0.228-0.997
	l0.934-0.264L36.681,30.028z M33.917,32.6l-0.765,0.006c-0.451,0-0.415-0.073-0.703-0.232l-0.08-0.951l-0.862-1.17v-0.702
	l2.122-0.468v0.432l-0.064,0.057c-0.768,0.195-0.568,0.024-0.626,0.877l0.691,0.279h0.23l0.261,0.457l-0.491,0.014L33.917,32.6z
	 M17.157,32.609c-1.01,0-1.52,0.183-2.045,0.384c0.138-0.613,0.295-1.224,0.467-1.821c0.279-0.021,0.35,0.393,0.639-0.682h0.709
	l0.47-0.233l0.47-0.235h0.709l0.939,0.939l0.706,0.475l0.237,0.237l-0.237,0.465h-0.706c0.059,0.078,0.943,1.11,0.943,0.239
	l0.469-0.239c0.179-0.186,0.252-0.286,0.29-0.354c0.067-0.003,0.181-0.024,0.414-0.112l-0.463-0.472l-0.479-0.236h-0.227
	l-1.305-1.299l0.593-0.114l0.939,0.705l0.713,0.233l0.196,0.28l0.276,0.191v0.475l0.808,1.101l0.604-0.145l-0.27-0.947l0.5-0.244
	h0.23h0.467l0.239,0.706l0.23,0.473l0.233,0.232l0.71,0.24l0.236-0.24h0.236l0.286,0.927l0.421,0.014v-0.705h0.236h0.464
	l-0.405,1.666l-0.535-0.019l-0.939,0.232h-0.943l-0.23-0.232c-1.295-0.029-1.207-0.471-1.885-0.471c-0.383,0-0.546,0.646-0.7,0.942
	l-1.185-0.239l-0.503-0.675l-0.436-0.028h-0.234c-0.979,0-0.503-0.51-0.7-0.941v-0.472h-1.652V32.609z M18.33,24.845h0.234
	l0.239,0.236l0.23,0.234h0.234v0.238l-0.464,0.705c3.095,0,1.314-1.009,2.819-1.412v-0.472L21.1,24.361l0.286-0.924l0.937-0.471
	c0.43-0.213,0.762-0.507,1.179,0l-0.239,0.231l-0.688,0.281l-0.013,0.895h0.467l0.534,1.146l-0.995-0.23l-0.466,1.206h-1.186h-0.239
	l-0.703,0.231h-0.236l-0.939-0.231h-0.24v-0.47l0.24-0.468v-0.238l-0.455,0.012l-0.255,0.459v0.239v0.235v0.465L17.32,26.74
	c0.249-0.507,0.488-1.014,0.768-1.505C18.177,25.17,18.177,25.054,18.33,24.845z M27.042,29.552v-0.235h0.23l1.17-0.29l-0.28,0.981
	l0.995,0.249l0.424,0.522l-0.187,0.422h-3.295l-1.416,0.238l0.193-0.276l-0.193-0.669l0.476-0.234v-0.471l0.233-0.236l0.47-0.232
	l0.236-0.236l0.467,0.236l0.24,0.468l0.466,0.233v-0.47H27.042z M27.269,22.969v-0.471h0.003h1.646v0.232h-0.707
	c-0.448,0-0.417,0.072-0.712,0.239H27.269z M25.16,24.613l-1.179-0.237h1.179V24.613z M26.799,35.667h0.24l0.46,0.234l0.246,0.236
	l0.233,0.238c0.372,0.707,0.436,0.988,0.811,1.777c0.206,0.439,0.946,0.977,1.309,1.523v0.934l-0.197,0.277l-0.506-0.514
	l-1.315-1.482l-0.101-0.869l-1.179-2.121V35.667z M43.498,68.564c-14.619,0-26.724-10.838-28.784-24.893h0.092l0.461-0.236
	l1.434-0.004l0.233,0.742l0.458-0.264h0.707l0.233,0.471v0.705v0.475v0.227l-0.276,0.197l1.213,1.215
	c0.276,0.57,0.476,1.031,0.476,1.885v0.471c0,0.816-0.476,0.359-0.476,1.176v0.703c0,0.891,0.58,1.572,0.946,2.123
	c0,0.963,1.225,3.998,1.882,3.998h1.41c1.277,0,3.03-1.764,3.055-3.059c0.304-0.16,0.94-0.33,0.94-0.711
	c0-0.629-0.104-0.65-0.23-1.176l1.854-1.451l0.028-2.08l-0.467-1.176v-0.709l0.276-0.197l0.197-0.275l2.119-2.115l0.94-1.18v-0.236
	l0.239-0.234l0.467-1.408h-0.233l-1.646,0.23h-0.707v-0.703h0.467l0.24-0.238l1.643-0.465l0.433-0.031l0.51-0.676l1.173-0.467
	L35.072,39l0.2-0.275v-0.227c0.218-0.148,0.709-0.389,0.709-0.711c0-0.135-0.323-0.486-0.467-0.707h-0.476l-0.283-0.549
	l-0.896,0.549h-0.707v-0.232v-0.708l-0.703-0.237l-0.47-0.235v-0.704l0.618,0.084l1.271,1.06l1.17,0.267l0.236,0.236h3.295v0.464
	c0.494,0.432,0.801,0.859,1.219,1.451l0.196-0.27l0.233-0.234l0.473,1.414l0.467,1.406l0.015,0.453l0.451,0.256l0.338,1.293
	l1.072-1.057l0.052-1.592l1.366-0.994c0.921-0.617,0.869-0.387,1.413-1.416h0.706l0.409-0.191l1,1.131l0.713,1.176l0.439,0.014
	l0.264,0.461v0.232l0.23,0.234v0.469c-0.07,0.924-0.488,0.998,0,1.416l0.239,0.227l0.47,0.949v0.23l0.236,0.709l-1.989-1.354
	l1.753,2.764l1.883,1.646l0.236,0.232l2.34,0.537l0.248-0.064c0.891,0,0.449,0.154,1.413,0.234v-0.471L54.344,47.9l-2.119-0.24
	v-1.412l-0.949-0.467v-0.229l-0.23-0.238l-0.27-0.271l0.23-0.092l0.494,0.133l-0.255-1.383l-0.673-0.5h-0.236l-0.239-0.238v-0.471
	l-0.23-0.232l0.265-1.447l1.615,1.217l1.179-0.24l0.474-0.23v-0.471c0-0.982,0.012-0.49-0.234-0.705v-0.234
	c-0.203-0.301-0.945-1.021-0.945-1.18c0-0.629,0.341-0.693,0.719-0.98l0.504,0.314l0.193-0.271h0.469l0.451-0.014l0.259-0.459h0.942
	l1.879-2.117v-0.468l-0.224-0.71l-0.522-0.991l0.522-0.417l0.703-0.472h-0.473h-0.467l-0.673-0.393l0.657-0.555l0.464-0.238
	l0.019,0.742l0.457-0.267h0.237l0.43,0.012l0.27,0.692h0.477v0.232v0.708h0.232c0.354-0.086,0.704-0.051,0.704-0.469
	c0-0.566-0.384-0.693-0.704-1.176c1.152-0.312,0.471-0.558,1.644-1.179l0.761,0.057l2.061-2.171v-0.703l0.465-0.24v1.884h0.476
	v-0.941l0.229-0.238l-0.229-1.176l-0.194-0.192l-0.516,0.424v-0.235l-0.51-0.512l-0.199,0.273l-1.18-0.232
	c0.975-1.328,3.191-1.833,5.414-1.884l0.24,0.235h0.457c0.348,0.596,0.666,1.203,0.971,1.821c0.021,0.459,0.131,0.558,0.347,1.127
	l0.132-0.131c1.604,3.602,2.512,7.583,2.512,11.779c0,5.49-1.557,10.611-4.207,15l-2.195-2.424l-0.125-0.586l-0.23-0.703
	l-0.474-0.234l-0.229-0.473v-0.232l-0.465-0.27l-0.012,0.51v0.939l-0.225,0.467l-1.648-0.234l-0.233-0.232l0.243-1.18h-0.717h-0.711
	l-0.468,0.232l-0.239,0.234l-0.268,0.461l-0.666-0.223c-1.738,0.455-1.375,2.133-4.004,2.354l-0.931,0.479l-0.009,0.459
	c0,0.512-0.176,0.707,0.232,0.707c0.037,1.521,0.041,3.268,1.406,3.293l0.24-0.234h0.236h1.173l0.942-0.705h0.713l0.467-0.23
	l2.113,0.943l0.199,0.27l0.494-0.289l-0.205,0.725l0.924-0.238l0.46,0.947l0.719-0.008h0.13
	C59.717,64.844,52.044,68.564,43.498,68.564z"/>
<circle fill="#EA5545" cx="67.03" cy="5.876" r="4.446"/>
</svg>
