<?xml version="1.0" encoding="utf-8"?>
<!-- Generator: Adobe Illustrator 16.0.0, SVG Export Plug-In . SVG Version: 6.00 Build 0)  -->
<!DOCTYPE svg PUBLIC "-//W3C//DTD SVG 1.1//EN" "http://www.w3.org/Graphics/SVG/1.1/DTD/svg11.dtd">
<svg version="1.1" xmlns="http://www.w3.org/2000/svg" xmlns:xlink="http://www.w3.org/1999/xlink" x="0px" y="0px"
	 width="304.667px" height="73px" viewBox="0 0 304.667 73" enable-background="new 0 0 304.667 73" xml:space="preserve">
<g id="Layer_2">
	<g>
		<path fill="#21B095" d="M98.746,42.863V24.661c0-1.106,0.853-1.959,1.959-1.959h12.862c0.948,0,1.738,0.79,1.738,1.738
			c0,0.98-0.79,1.738-1.738,1.738h-10.934v5.751h9.512c0.948,0,1.738,0.79,1.738,1.77c0,0.948-0.79,1.707-1.738,1.707h-9.512v5.941
			h11.092c0.948,0,1.738,0.79,1.738,1.738c0,0.98-0.79,1.738-1.738,1.738h-13.02C99.599,44.823,98.746,43.97,98.746,42.863z"/>
		<path fill="#21B095" d="M122.956,45.139h-0.19c-1.042,0-1.738-0.664-2.18-1.675l-5.562-12.735c-0.095-0.284-0.221-0.6-0.221-0.948
			c0-0.948,0.854-1.833,1.896-1.833c1.043,0,1.58,0.601,1.896,1.391l4.297,11.06l4.361-11.124c0.285-0.664,0.79-1.327,1.801-1.327
			c1.043,0,1.865,0.79,1.865,1.833c0,0.348-0.126,0.727-0.221,0.917l-5.562,12.767C124.693,44.443,123.998,45.139,122.956,45.139z"
			/>
		<path fill="#21B095" d="M138.316,45.202c-4.835,0-8.564-3.508-8.564-8.659V36.48c0-4.771,3.381-8.69,8.153-8.69
			c5.309,0,7.932,4.361,7.932,8.216c0,1.075-0.822,1.833-1.801,1.833h-10.46c0.411,2.718,2.338,4.234,4.803,4.234
			c1.612,0,2.875-0.568,3.95-1.454c0.284-0.221,0.537-0.347,0.979-0.347c0.854,0,1.517,0.664,1.517,1.548
			c0,0.474-0.221,0.885-0.506,1.169C142.804,44.349,140.907,45.202,138.316,45.202z M142.108,35.311
			c-0.253-2.465-1.707-4.393-4.234-4.393c-2.339,0-3.982,1.801-4.33,4.393H142.108z"/>
		<path fill="#21B095" d="M146.599,29.875c0-1.074,0.821-1.928,1.896-1.928c1.074,0,1.928,0.854,1.928,1.928v1.707
			c0.885-2.086,2.528-3.666,4.203-3.666c1.201,0,1.896,0.79,1.896,1.896c0,1.011-0.664,1.675-1.517,1.833
			c-2.718,0.474-4.582,2.56-4.582,6.51v4.93c0,1.043-0.854,1.896-1.928,1.896c-1.043,0-1.896-0.822-1.896-1.896V29.875z"/>
		<path fill="#21B095" d="M156.871,49.5c-0.569-0.189-1.201-0.664-1.201-1.58c0-0.948,0.727-1.58,1.548-1.58
			c0.316,0,0.506,0.063,0.695,0.126c0.442,0.126,0.79,0.221,1.327,0.221c1.138,0,1.738-0.474,2.37-1.77l0.126-0.348l-6.194-13.841
			c-0.126-0.284-0.221-0.664-0.221-0.916c0-1.075,0.822-1.865,1.896-1.865c0.979,0,1.517,0.569,1.865,1.454l4.487,11.092
			l4.171-11.092c0.316-0.79,0.854-1.454,1.833-1.454c1.011,0,1.833,0.79,1.833,1.801c0,0.316-0.095,0.727-0.158,0.917l-6.099,14.631
			c-1.422,3.413-2.939,4.677-5.625,4.677C158.451,49.974,157.661,49.816,156.871,49.5z"/>
		<path fill="#FFFFFF" d="M170.967,25.199c-0.095-0.221-0.158-0.506-0.158-0.759c0-1.074,0.917-1.896,1.991-1.896
			c0.948,0,1.675,0.601,1.928,1.422l5.088,15.2l4.993-15.137c0.316-0.917,0.979-1.548,1.959-1.548h0.285
			c0.979,0,1.675,0.632,1.959,1.548l4.993,15.137l5.087-15.231c0.285-0.79,0.948-1.391,1.896-1.391c1.042,0,1.927,0.822,1.927,1.865
			c0,0.252-0.095,0.569-0.189,0.79l-6.542,18.329c-0.348,0.979-1.074,1.611-2.022,1.611h-0.379c-0.948,0-1.644-0.6-1.991-1.611
			l-4.93-14.442l-4.93,14.442c-0.348,1.011-1.074,1.611-2.022,1.611h-0.379c-0.948,0-1.644-0.6-2.022-1.611L170.967,25.199z"/>
		<path fill="#FFFFFF" d="M200.931,36.575v-0.063c0-4.772,3.792-8.722,8.911-8.722c5.12,0,8.88,3.887,8.88,8.659v0.063
			c0,4.74-3.792,8.69-8.943,8.69C204.691,45.202,200.931,41.315,200.931,36.575z M214.898,36.575v-0.063
			c0-2.939-2.117-5.372-5.119-5.372c-3.065,0-5.024,2.401-5.024,5.309v0.063c0,2.907,2.117,5.34,5.087,5.34
			C212.939,41.852,214.898,39.451,214.898,36.575z"/>
		<path fill="#FFFFFF" d="M219.452,29.875c0-1.074,0.821-1.928,1.896-1.928c1.074,0,1.928,0.854,1.928,1.928v1.707
			c0.885-2.086,2.528-3.666,4.203-3.666c1.201,0,1.896,0.79,1.896,1.896c0,1.011-0.664,1.675-1.517,1.833
			c-2.718,0.474-4.582,2.56-4.582,6.51v4.93c0,1.043-0.854,1.896-1.928,1.896c-1.043,0-1.896-0.822-1.896-1.896V29.875z"/>
		<path fill="#FFFFFF" d="M229.566,23.492c0-1.043,0.821-1.896,1.896-1.896c1.074,0,1.928,0.853,1.928,1.896v19.592
			c0,1.075-0.854,1.896-1.928,1.896c-1.043,0-1.896-0.822-1.896-1.896V23.492z"/>
		<path fill="#FFFFFF" d="M251.625,43.084c0,1.075-0.854,1.896-1.896,1.896c-1.075,0-1.928-0.822-1.928-1.896v-1.042
			c-1.232,1.738-2.971,3.128-5.688,3.128c-3.918,0-7.742-3.128-7.742-8.659v-0.063c0-5.53,3.761-8.659,7.742-8.659
			c2.75,0,4.487,1.358,5.688,2.938v-7.236c0-1.075,0.853-1.896,1.896-1.896c1.074,0,1.928,0.821,1.928,1.896V43.084z
			 M238.226,36.449v0.063c0,3.223,2.212,5.34,4.803,5.34c2.56,0,4.835-2.148,4.835-5.34v-0.063c0-3.224-2.275-5.341-4.835-5.341
			C240.406,31.108,238.226,33.13,238.226,36.449z"/>
		<path fill="#21B095" d="M252.733,33.826v-0.063c0-6.289,4.709-11.439,11.408-11.439c3.413,0,5.657,1.011,7.584,2.497
			c0.411,0.316,0.759,0.853,0.759,1.548c0,1.075-0.854,1.896-1.928,1.896c-0.537,0-0.917-0.189-1.169-0.379
			c-1.517-1.232-3.16-1.991-5.277-1.991c-4.203,0-7.3,3.477-7.3,7.806v0.063c0,4.33,3.065,7.837,7.3,7.837
			c2.338,0,3.918-0.759,5.53-2.117c0.284-0.253,0.695-0.443,1.169-0.443c0.979,0,1.833,0.822,1.833,1.801
			c0,0.601-0.284,1.075-0.632,1.391c-2.086,1.833-4.456,2.971-8.027,2.971C257.537,45.202,252.733,40.177,252.733,33.826z"/>
		<path fill="#21B095" d="M273.373,23.65c0-1.137,0.948-1.864,2.181-1.864s2.18,0.727,2.18,1.864v0.19
			c0,1.138-0.948,1.896-2.18,1.896s-2.181-0.758-2.181-1.896V23.65z M273.657,29.875c0-1.074,0.821-1.928,1.896-1.928
			c1.074,0,1.928,0.854,1.928,1.928v13.209c0,1.075-0.854,1.896-1.928,1.896c-1.043,0-1.896-0.822-1.896-1.896V29.875z"/>
		<path fill="#21B095" d="M280.104,40.209v-8.785h-0.632c-0.917,0-1.643-0.727-1.643-1.643s0.727-1.643,1.643-1.643h0.632v-2.844
			c0-1.043,0.853-1.896,1.927-1.896c1.043,0,1.896,0.853,1.896,1.896v2.844h3.002c0.917,0,1.675,0.727,1.675,1.643
			s-0.758,1.643-1.675,1.643h-3.002v8.185c0,1.485,0.758,2.086,2.054,2.086c0.442,0,0.822-0.095,0.948-0.095
			c0.853,0,1.612,0.695,1.612,1.58c0,0.695-0.474,1.264-1.012,1.485c-0.821,0.285-1.611,0.442-2.623,0.442
			C282.095,45.107,280.104,43.875,280.104,40.209z"/>
		<path fill="#21B095" d="M289.523,49.5c-0.569-0.189-1.201-0.664-1.201-1.58c0-0.948,0.727-1.58,1.548-1.58
			c0.316,0,0.506,0.063,0.695,0.126c0.442,0.126,0.79,0.221,1.327,0.221c1.138,0,1.738-0.474,2.37-1.77l0.126-0.348l-6.194-13.841
			c-0.126-0.284-0.221-0.664-0.221-0.916c0-1.075,0.822-1.865,1.896-1.865c0.979,0,1.517,0.569,1.865,1.454l4.487,11.092
			l4.171-11.092c0.316-0.79,0.854-1.454,1.833-1.454c1.011,0,1.833,0.79,1.833,1.801c0,0.316-0.095,0.727-0.158,0.917l-6.099,14.631
			c-1.422,3.413-2.939,4.677-5.625,4.677C291.103,49.974,290.313,49.816,289.523,49.5z"/>
	</g>
</g>
<g id="Layer_1">
	<polygon display="none" fill="#010202" points="314.61,113.974 321.015,113.974 327.354,113.974 327.354,110.784 322.593,110.784 
		321.015,109.211 313.01,109.211 313.01,110.784 314.61,110.784 	"/>
	<path display="none" fill="#010202" d="M402.242,309.948v-3.205h-6.362C399.457,311.671,394.843,309.324,402.242,309.948z"/>
	<polygon display="none" fill="#010202" points="370.372,286.038 367.191,286.038 352.844,297.201 349.768,295.352 349.684,301.964 
		352.844,303.563 362.409,308.365 363.988,309.948 371.971,295.622 370.372,294.021 370.372,290.819 371.971,289.239 
		373.595,286.038 	"/>
	<path display="none" fill="#010202" d="M448.461,316.307c2.64,0.042,5.178-4.573,6.362-6.359l-10.915,3.677
		C445.487,315.603,443.948,316.307,448.461,316.307z"/>
	<polygon display="none" fill="#010202" points="378.375,266.909 378.375,268.531 378.375,270.11 379.913,270.11 379.913,268.531 
		379.913,262.149 381.578,260.59 381.578,258.968 379.913,257.389 378.375,257.389 376.754,262.149 376.754,265.33 378.375,265.33 	
		"/>
	<polygon display="none" fill="#010202" points="353.675,251.772 348.896,256.579 355.258,253.396 	"/>
	<path display="none" fill="#010202" d="M375.175,311.527l1.58,1.621l0.581-6.819l4.243,5.199v-3.162v-1.622l1.413-4.821
		l-6.257,0.042l6.34-1.812c4.617-0.395,2.663,0.064,4.865-2.952h-8.025c-4.406,0-3.843,1.227-4.761,4.764l-1.558,1.598
		L375.175,311.527z"/>
	<polygon display="none" fill="#010202" points="379.913,244.632 379.248,241.014 376.754,246.224 379.913,247.804 	"/>
	<path display="none" fill="#010202" d="M403.863,220.682l3.41,1.851l1.332-1.851l1.662-1.725l3.327,1.985l1.33-1.863l6.342-1.589
		l3.202-1.58l1.601-6.382l1.58-1.581v-3.17l-1.58-4.792h3.14l6.818-2.216l-7.048-4.428l-1.33,1.86l-5.073,3.296l1.622,4.407
		l-1.331,1.872v3.192h0.021l-3.139,4.77h-3.203c-2.91,1.913-2.827,3.191-6.401,3.191h-1.54c-6.134,0-0.602-0.489-4.824,1.581
		l-1.83,1.319l-1.351,1.851v4.792h3.223v-4.792H403.863z"/>
	<polygon display="none" fill="#010202" points="378.521,322.588 373.157,323.376 378.001,326.454 381.578,319.51 376.754,319.51 	
		"/>
	<polygon fill="#21B095" points="57.119,41.52 56.873,41.753 57.137,42.469 56.873,43.387 57.542,43.181 57.819,43.636 
		58.286,43.636 58.519,42.693 58.519,42.46 58.058,42.693 57.585,42.693 58.286,41.753 58.286,41.283 57.819,41.283 57.77,42.039 
		57.346,41.52 	"/>
	<path display="none" fill="#010202" d="M384.905,324.688l6.486-2.891C383.698,321.714,388.313,319.384,384.905,324.688z"/>
	<polygon fill="#21B095" points="57.585,41.283 57.573,40.78 57.119,41.05 	"/>
	<path fill="#21B095" d="M62.523,46.237l-0.939,0.697l-0.467-0.943H60.41l0.234,0.473v0.707h0.706l0.706,0.233l0.694,0.488
		l-0.252,0.921l1.204,0.239h0.712l0.366-0.761l0.574,0.294c0.488,0.731,0.464,0.915,1.646,0.94l-1.179-1.179l0.255-0.46
		L62.523,46.237z"/>
	<path fill="#21B095" d="M31.46,50.226l-0.23,0.473l-0.233,0.233l-0.243,0.233l-0.233,0.239h-0.706v1.173
		c0,0.528-0.184,0.516-0.466,0.939l0.46,1.185c1.929-0.46,0.937-1.173,1.892-2.591v-0.707l0.237-0.239v-0.233l-0.237-0.706H31.46
		L31.46,50.226z"/>
	<polygon display="none" fill="#010202" points="111.008,200.286 112.296,203.206 112.296,207.969 113.876,207.969 113.876,203.206 
		115.623,200.089 112.359,198.257 	"/>
	<rect x="234.961" y="107.612" display="none" fill="#010202" width="3.161" height="3.171"/>
	<path fill="#21B095" d="M82.925,44.686c-2.521,0-4.67,1.554-5.57,3.75l-4.397-1.378c0.589-2.383,0.933-4.858,0.933-7.419
		c0-10.211-4.962-19.261-12.578-24.943l3.089-5.215c0.488,0.213,1.025,0.336,1.594,0.336c2.22,0,4.02-1.798,4.02-4.018
		c0-2.22-1.799-4.02-4.02-4.02c-2.214,0-4.014,1.8-4.014,4.02c0,1.289,0.645,2.383,1.591,3.119l-3.07,5.172
		c-5.039-3.514-11.156-5.59-17.752-5.59c-10.068,0-19.01,4.824-24.703,12.257l-5.794-4.156c0.54-0.903,0.869-1.947,0.869-3.075
		c0-3.33-2.696-6.028-6.025-6.028c-3.332,0-6.03,2.698-6.03,6.028c0,3.331,2.699,6.028,6.03,6.028c1.836,0,3.464-0.843,4.57-2.142
		l5.785,4.146c-3.657,5.104-5.835,11.336-5.835,18.082c0,2.542,0.338,4.999,0.919,7.363l-3.381,1.91
		c-0.73-0.983-1.842-1.658-3.166-1.658c-2.22,0-4.019,1.799-4.019,4.017c0,2.217,1.799,4.016,4.019,4.016s4.02-1.799,4.02-4.016
		c0-0.535-0.117-1.044-0.308-1.508l3.096-1.748c3.669,13.106,15.697,22.757,29.96,22.757c14.264,0,26.282-9.645,29.961-22.745
		l4.348,1.37c-0.095,0.424-0.153,0.86-0.153,1.317c0,3.332,2.692,6.028,6.024,6.028c3.329,0,6.031-2.696,6.031-6.028
		C88.956,47.385,86.253,44.686,82.925,44.686z M22.549,18.695h0.209c-0.043-0.06-0.046-0.077-0.074-0.123
		c5.226-4.984,12.289-8.065,20.063-8.065c8.083,0,15.409,3.316,20.69,8.653h-0.915v0.468h1.342c0.077,0.082,0.15,0.166,0.224,0.252
		c-0.114-0.003-0.212-0.006-0.387-0.009v0.468l-0.707,0.472h-0.709l-2.444,0.069l-0.612-0.918l-5.398-0.087l0.209-0.689
		l-0.455-0.258h-0.24h-1.649v-0.232h-0.47h-0.233l-0.233-0.708c-1.229,0-0.916-0.21-1.416,0.475h0.709v0.233l-2.822,0.469
		l-1.882,0.234h-0.233l-0.473,0.234l-0.473,0.239h-1.64v0.468l-0.939,0.021l-1.692,0.252l0.273,0.198l0.234,0.708L40.426,22
		l-0.255,0.459h-0.476l-0.181-0.192l0.458-0.549l-0.276-0.195v-1.179h-0.706c-0.633,0-0.989,0.443-1.173,0.939l0.234,0.236
		l-0.234,0.235l-0.706-0.235h-0.233l-1.416-0.236v0.471h-0.47h-1.407h-1.885v-0.471h-0.473c0.086,0.233,0.11,0.346,0.117,0.419
		c0.067,0.037,0.169,0.112,0.356,0.289H31.46l-1.167,0.233v-0.47h-0.476v0.705h-0.94h-0.233l-1.18-0.705l-0.464-0.235
		c-1.707,0-1.983-0.472-3.537-0.472H23.23c-0.639,0-0.651,0.116-1.173,0.235l-1.649,0.471l-0.236,0.233l-0.461,0.258l-0.267-0.012
		C20.387,20.974,21.418,19.786,22.549,18.695z M41.587,21.754v0.233h-0.243L41.587,21.754z M35.931,30.229l-1.167,0.289l0.228-0.997
		l0.934-0.264L35.931,30.229z M33.167,32.801l-0.765,0.006c-0.451,0-0.415-0.073-0.703-0.232l-0.08-0.951l-0.862-1.17v-0.702
		l2.122-0.468v0.432l-0.064,0.057c-0.768,0.195-0.568,0.024-0.626,0.877l0.691,0.279h0.23l0.261,0.457l-0.491,0.014L33.167,32.801z
		 M16.407,32.81c-1.01,0-1.52,0.183-2.045,0.384c0.138-0.613,0.295-1.224,0.467-1.821c0.279-0.021,0.35,0.393,0.639-0.682h0.709
		l0.47-0.233l0.47-0.235h0.709l0.939,0.939l0.706,0.475l0.237,0.237l-0.237,0.465h-0.706c0.059,0.078,0.943,1.11,0.943,0.239
		l0.469-0.239c0.179-0.186,0.252-0.286,0.29-0.354c0.067-0.003,0.181-0.024,0.414-0.112l-0.463-0.472l-0.479-0.236h-0.227
		l-1.305-1.299l0.593-0.114l0.939,0.705l0.713,0.233l0.196,0.28l0.276,0.191v0.475l0.808,1.101l0.604-0.145l-0.27-0.947l0.5-0.244
		h0.23h0.467l0.239,0.706l0.23,0.473l0.233,0.232l0.71,0.24l0.236-0.24h0.236l0.286,0.927l0.421,0.014v-0.705h0.236h0.464
		l-0.405,1.666l-0.535-0.019l-0.939,0.232h-0.943l-0.23-0.232c-1.295-0.029-1.207-0.471-1.885-0.471c-0.383,0-0.546,0.646-0.7,0.942
		l-1.185-0.239l-0.503-0.675l-0.436-0.028h-0.234c-0.979,0-0.503-0.51-0.7-0.941v-0.472h-1.652V32.81z M17.58,25.046h0.234
		l0.239,0.236l0.23,0.234h0.234v0.238l-0.464,0.705c3.095,0,1.314-1.009,2.819-1.412v-0.472l-0.522-0.012l0.286-0.924l0.937-0.471
		c0.43-0.213,0.762-0.507,1.179,0l-0.239,0.231l-0.688,0.281l-0.013,0.895h0.467l0.534,1.146l-0.995-0.23l-0.466,1.206h-1.186
		h-0.239l-0.703,0.231h-0.236l-0.939-0.231h-0.24v-0.47l0.24-0.468v-0.238l-0.455,0.012l-0.255,0.459v0.239v0.235v0.465L16.57,26.94
		c0.249-0.507,0.488-1.014,0.768-1.505C17.427,25.371,17.427,25.254,17.58,25.046z M26.292,29.753v-0.235h0.23l1.17-0.29
		l-0.28,0.981l0.995,0.249l0.424,0.522l-0.187,0.422h-3.295l-1.416,0.238l0.193-0.276l-0.193-0.669l0.476-0.234v-0.471l0.233-0.236
		l0.47-0.232l0.236-0.236l0.467,0.236l0.24,0.468l0.466,0.233v-0.47H26.292z M26.519,23.169v-0.471h0.003h1.646v0.232h-0.707
		c-0.448,0-0.417,0.072-0.712,0.239H26.519z M24.41,24.814l-1.179-0.237h1.179V24.814z M26.049,35.867h0.24l0.46,0.234l0.246,0.236
		l0.233,0.238c0.372,0.708,0.436,0.989,0.811,1.778c0.206,0.439,0.946,0.977,1.309,1.523v0.934l-0.197,0.276l-0.506-0.513
		l-1.315-1.482l-0.101-0.869l-1.179-2.121V35.867z M42.748,68.766c-14.619,0-26.724-10.839-28.784-24.894h0.092l0.461-0.236
		l1.434-0.003l0.233,0.743l0.458-0.264h0.707l0.233,0.47v0.706v0.473v0.228l-0.276,0.196l1.213,1.216
		c0.276,0.571,0.476,1.032,0.476,1.885v0.47c0,0.816-0.476,0.359-0.476,1.176v0.703c0,0.891,0.58,1.572,0.946,2.122
		c0,0.964,1.225,3.998,1.882,3.998h1.41c1.277,0,3.03-1.763,3.055-3.059c0.304-0.16,0.94-0.329,0.94-0.709
		c0-0.629-0.104-0.651-0.23-1.176l1.854-1.453l0.028-2.079l-0.467-1.176v-0.709l0.276-0.196l0.197-0.276l2.119-2.116l0.94-1.179
		V43.39l0.239-0.233l0.467-1.41h-0.233l-1.646,0.23h-0.707v-0.703h0.467l0.24-0.237l1.643-0.466l0.433-0.031l0.51-0.675l1.173-0.466
		l0.27-0.197l0.2-0.277v-0.227c0.218-0.147,0.709-0.387,0.709-0.709c0-0.135-0.323-0.487-0.467-0.708h-0.476l-0.283-0.549
		l-0.896,0.549h-0.707v-0.232v-0.708l-0.703-0.237l-0.47-0.235v-0.704l0.618,0.084l1.271,1.06l1.17,0.267l0.236,0.236h3.295v0.465
		c0.494,0.431,0.801,0.858,1.219,1.451l0.196-0.27l0.233-0.233l0.473,1.413l0.467,1.406l0.015,0.455l0.451,0.255l0.338,1.293
		l1.072-1.057l0.052-1.591l1.366-0.995c0.921-0.617,0.869-0.387,1.413-1.416h0.706l0.409-0.192l1.001,1.131l0.712,1.176l0.439,0.013
		l0.264,0.46v0.233l0.23,0.233v0.47c-0.07,0.924-0.487,0.998,0,1.416l0.24,0.227l0.47,0.949v0.23l0.237,0.709l-1.99-1.354
		l1.753,2.764l1.882,1.646l0.237,0.233l2.34,0.538l0.249-0.065c0.891,0,0.449,0.154,1.413,0.234V48.57l-2.113-0.469l-2.119-0.24
		v-1.413l-0.949-0.466v-0.228l-0.23-0.24l-0.27-0.27l0.23-0.092l0.494,0.132l-0.255-1.382l-0.672-0.5h-0.237l-0.239-0.239v-0.47
		l-0.23-0.233l0.264-1.447l1.615,1.216l1.179-0.24l0.473-0.23v-0.47c0-0.982,0.012-0.491-0.233-0.706V40.35
		c-0.203-0.301-0.946-1.022-0.946-1.179c0-0.629,0.341-0.694,0.719-0.982l0.504,0.316l0.193-0.273h0.47l0.451-0.012l0.258-0.459
		h0.942l1.879-2.117v-0.468l-0.224-0.71l-0.522-0.991l0.522-0.417l0.703-0.472h-0.473h-0.467l-0.672-0.393l0.657-0.555l0.463-0.238
		l0.019,0.742l0.457-0.267h0.237l0.43,0.012l0.271,0.692h0.476v0.232v0.708h0.233c0.354-0.086,0.704-0.051,0.704-0.469
		c0-0.566-0.384-0.693-0.704-1.176c1.152-0.312,0.47-0.558,1.643-1.179l0.761,0.057l2.061-2.171v-0.703l0.464-0.24v1.884h0.476
		V28.58l0.23-0.238l-0.23-1.176l-0.194-0.192l-0.516,0.424v-0.235l-0.51-0.512l-0.2,0.273l-1.179-0.232
		c0.974-1.328,3.19-1.833,5.414-1.884l0.239,0.235h0.458c0.347,0.596,0.667,1.203,0.971,1.821c0.021,0.459,0.131,0.558,0.347,1.127
		l0.132-0.131c1.603,3.602,2.512,7.583,2.512,11.779c0,5.49-1.557,10.612-4.207,15l-2.195-2.423l-0.126-0.586l-0.23-0.704
		l-0.473-0.233l-0.23-0.473v-0.233l-0.464-0.27l-0.012,0.51v0.939l-0.225,0.467l-1.649-0.233l-0.233-0.233l0.243-1.179h-0.716
		h-0.712l-0.467,0.233l-0.239,0.233l-0.267,0.46l-0.667-0.221c-1.738,0.455-1.375,2.131-4.004,2.352l-0.931,0.479l-0.009,0.458
		c0,0.512-0.175,0.708,0.233,0.708c0.037,1.52,0.04,3.268,1.406,3.292l0.24-0.233h0.236h1.173l0.943-0.706h0.712l0.467-0.23
		l2.112,0.943l0.2,0.271l0.494-0.29l-0.206,0.725l0.924-0.239l0.46,0.949l0.719-0.009h0.129
		C58.967,65.044,51.294,68.766,42.748,68.766z"/>
</g>
<g id="Layer_4">
	<circle fill="#EA5545" cx="66.28" cy="6.077" r="4.447"/>
	<g>
	</g>
	<g>
	</g>
	<g>
	</g>
	<g>
	</g>
	<g>
	</g>
	<g>
	</g>
	<g>
	</g>
</g>
</svg>
